<?xml version="1.0" encoding="utf-8"?>
<!-- Generator: Adobe Illustrator 19.0.0, SVG Export Plug-In . SVG Version: 6.00 Build 0)  -->
<svg version="1.1" id="Layer_1" xmlns="http://www.w3.org/2000/svg" xmlns:xlink="http://www.w3.org/1999/xlink" x="0px" y="0px"
	 viewBox="0 0 500 500" style="enable-background:new 0 0 500 500;" xml:space="preserve">
<style type="text/css">
	.st0{fill:#FF7D00;}
	.st1{fill:#8C8C8C;}
</style>
<g id="XMLID_1_">
	<path id="XMLID_3_" class="st0" d="M299.7,225.6c1.3-0.5,2.5-1,3.8-1.6c-0.4,3.4-0.9,6.7-1.3,10.1
		C301.3,231.3,300.5,228.5,299.7,225.6z"/>
	<path id="XMLID_4_" class="st0" d="M308.3,224.4c1.2,0.6,2.4,1.2,3.6,1.9c-2.3,3-4.6,6-6.9,8.9C306.1,231.6,307.2,228,308.3,224.4z
		"/>
	<path id="XMLID_5_" class="st0" d="M329.1,228.4c3.1-0.2,6.3,0.1,9.1,1.4c2.5,1.2,4.4,3.5,5.3,6.1c0.1,0.3-0.1,0.5-0.3,0.6
		c-1.3,0.9-2.6,1.9-3.9,2.8c-0.2,0.2-0.6,0.1-0.7-0.2c-0.5-1.4-1.3-2.8-2.5-3.8c-1.2-1-2.7-1.5-4.2-1.6c-1.5-0.1-3.1,0-4.5,0.6
		c-1,0.4-2,1.2-2.5,2.2c-0.6,1.2-0.7,2.6-0.1,3.8c0.8,1.5,2.5,2.3,4,2.8c1.8,0.6,3.6,1.2,5.4,1.8c2.4,0.7,4.7,1.7,6.7,3.3
		c1.6,1.2,2.7,2.9,3.2,4.8c0.6,2.3,0.5,4.8-0.2,7.1c-0.8,2.5-2.6,4.6-4.9,5.8c-2.3,1.2-4.9,1.6-7.4,1.7c-2.9,0.1-5.9-0.4-8.5-1.8
		c-3.1-1.7-5.4-4.7-6.4-8.1c-0.1-0.3,0.2-0.4,0.4-0.6c1.2-0.8,2.5-1.6,3.7-2.5c0.2-0.2,0.5-0.3,0.7-0.1c0.2,0.3,0.3,0.7,0.4,1
		c1.1,2.5,3.1,4.7,5.7,5.8c1.9,0.8,4.1,0.8,6.1,0.3c1.6-0.4,3.2-1.5,3.9-3.1c0.7-1.9,0.3-4.3-1.3-5.6c-1.8-1.6-4.2-2.3-6.5-3.1
		c-2.6-0.9-5.3-1.7-7.6-3.2c-1.7-1-3.1-2.5-3.7-4.5c-0.8-2.6-0.8-5.5,0.5-7.9c1-2.1,2.8-3.7,4.8-4.7
		C325.8,229,327.4,228.5,329.1,228.4z"/>
	<path id="XMLID_6_" class="st0" d="M348.8,229.6c-0.1-0.3,0.3-0.5,0.6-0.5c1.7,0,3.3,0,5,0c0.3,0,0.5,0.3,0.5,0.6
		c0,4.1,0,8.2,0,12.4c1.4-1.4,3.2-2.3,5.2-2.6c2.5-0.4,5.1-0.3,7.4,0.7c1.9,0.8,3.4,2.3,4.3,4.2c0.6,1.2,0.8,2.6,0.8,3.9
		c0,6,0,12,0,18.1c0,0.3-0.3,0.4-0.5,0.4c-1.7,0-3.3,0-5,0c-0.3,0-0.6-0.3-0.5-0.6c0-5.6,0-11.2,0-16.8c0-1.2-0.3-2.5-1.2-3.4
		c-1-1.1-2.5-1.6-3.9-1.6c-2.3,0-4.8,1-5.9,3.1c-0.3,0.5-0.6,1-0.6,1.6c0,5.7,0,11.4,0,17.1c0,0.3-0.2,0.6-0.5,0.6
		c-1.7,0-3.4,0-5.1,0c-0.3,0-0.5-0.3-0.4-0.6C348.8,254.1,348.8,241.8,348.8,229.6z"/>
	<path id="XMLID_7_" class="st0" d="M307.3,237.4c2.5-2.3,5-4.6,7.4-6.9c0.3,1.3,0.6,2.7,0.9,4C312.8,235.4,310.1,236.4,307.3,237.4
		z"/>
	<path id="XMLID_10_" class="st0" d="M292.3,236.1c2.7-0.8,5.7-0.9,8.4,0c2.4,0.7,4.5,2.2,6.2,4c1.7,1.8,3.1,4,4,6.3
		c0.1,0.3-0.1,0.6-0.3,0.7c-6.8,3.5-13.5,7-20.3,10.5c1.3,2.1,3.5,3.7,5.9,4.3c2.7,0.6,5.5-0.2,7.7-1.7c2.4-1.7,3.9-4.6,4.2-7.5
		c0-0.4,0.5-0.6,0.8-0.4c1.3,0.8,2.6,1.6,4,2.4c0.2,0.1,0.4,0.4,0.3,0.7c-1,4.1-3.3,7.9-6.8,10.3c-1.3,0.8-2.7,1.5-4.1,1.9
		c-4.9,1.1-10.3,0-14.2-3.3c-2-1.7-3.6-3.9-4.8-6.2c-0.5-0.9-0.8-1.9-1-2.9c-0.9-3.2-0.9-6.8,0.3-9.9
		C284.2,240.7,287.9,237.3,292.3,236.1 M294.6,241c-2.6,0.6-5,2.3-6.2,4.6c-1.2,2.1-1.6,4.8-0.5,7.1c5-2.7,10.1-5.4,15.1-8.2
		c-0.6-1.1-1.5-2-2.5-2.6C298.7,240.8,296.6,240.6,294.6,241z"/>
	<path id="XMLID_13_" class="st0" d="M388.9,239.3c1.9-0.1,3.8,0,5.6,0.6c2.1,0.6,4.1,1.8,5.6,3.5c2.4,2.7,3.4,6.5,3.4,10.1
		c0,3.7-1.1,7.5-3.7,10.2c-1.7,1.8-4.1,3-6.5,3.4c-1.8,0.3-3.6,0.4-5.4,0.1c-2.5-0.3-5-1.4-6.8-3.1c-2.6-2.3-3.9-5.7-4.2-9.1
		c-0.2-2.8,0-5.7,1.1-8.2c0.7-1.8,1.9-3.4,3.3-4.6C383.4,240.5,386.1,239.5,388.9,239.3 M388.8,244.5c-1.8,0.3-3.5,1.5-4.5,3
		c-1.3,2.1-1.6,4.6-1.4,7c0.2,1.8,0.7,3.6,1.8,5.1c1.3,1.7,3.4,2.7,5.5,2.6c2.1,0,4.3-1,5.5-2.8c1.5-2.2,1.8-4.9,1.6-7.5
		c-0.2-2.1-0.9-4.3-2.5-5.8C393.2,244.7,390.9,244.2,388.8,244.5z"/>
	<path id="XMLID_16_" class="st0" d="M413.1,242.6c1.4-1.8,3.6-2.8,5.8-3.1c3.1-0.4,6.5,0.2,9,2.2c2.2,1.7,3.5,4.2,4.1,6.9
		c0.6,2.6,0.7,5.4,0.3,8.1c-0.4,2.9-1.5,5.7-3.6,7.8c-3,3-7.8,3.8-11.7,2.4c-1.2-0.4-2.5-1-3.4-1.9c0,3.5,0,7,0,10.5
		c0,0.3-0.2,0.5-0.4,0.5c-1.7,0-3.4,0-5.1,0c-0.3,0-0.5-0.2-0.5-0.5c0-11.7,0-23.3,0-35c-0.1-0.3,0.2-0.6,0.5-0.5c1.5,0,3.1,0,4.6,0
		c0.2,0,0.4,0.1,0.5,0.2C413.1,240.9,413.1,241.7,413.1,242.6 M413.7,248.8c-0.2,0.7-0.3,1.5-0.3,2.3c0,2.6,0,5.1,0,7.7
		c0.7,0.9,1.5,1.7,2.4,2.4c1.5,1.2,3.5,1.4,5.3,1.1c1.7-0.3,3.2-1.5,4-3c0.8-1.5,1.2-3.2,1.3-4.8c0.1-1.7,0-3.4-0.4-5
		c-0.4-1.4-1.1-2.7-2.2-3.6c-1.3-1.2-3.2-1.6-4.9-1.4C416.5,244.7,414.4,246.5,413.7,248.8z"/>
	<path id="XMLID_17_" class="st1" d="M67.5,229.3c0.1-0.2,0.4-0.2,0.6-0.2c2.2,0,4.3,0,6.5,0c0.2,0,0.3,0.2,0.4,0.3
		c3.8,6.9,7.5,13.8,11.3,20.8c1.3,2.4,2.7,4.8,3.7,7.4c-0.1-1.8-0.2-3.6-0.2-5.4c0-7.5,0-15,0-22.5c0-0.2,0.1-0.4,0.2-0.5
		c1.9,0,3.7,0,5.6,0c0.1,0.2,0.2,0.3,0.2,0.5c0,12.2,0,24.4,0,36.6c0,0.3-0.2,0.5-0.5,0.5c-2.2,0-4.4,0-6.6,0
		c-0.2,0-0.5-0.1-0.6-0.3c-4-7.4-8-14.8-12-22.2c-0.7-1.3-1.5-2.7-2.1-4.1c-0.3-0.6-0.5-1.2-0.7-1.9c0.1,1.8,0.1,3.6,0.2,5.3
		c0,7.5,0,15.1,0,22.6c0.1,0.3-0.2,0.5-0.5,0.5c-1.7,0-3.3,0-5,0c-0.3,0-0.6-0.2-0.5-0.5c0-12,0-24.1,0-36.1
		C67.5,229.9,67.5,229.6,67.5,229.3z"/>
	<path id="XMLID_18_" class="st1" d="M102,229.5c0-0.2,0.2-0.4,0.4-0.4c1.9,0,3.8,0,5.7,0c0.3,0.3,0.2,0.7,0.2,1.1
		c0,1.8,0,3.7,0,5.5c0,0.3-0.2,0.5-0.5,0.4c-1.8,0-3.6,0-5.4,0c-0.3,0-0.5-0.2-0.4-0.4C101.9,233.6,101.9,231.6,102,229.5z"/>
	<path id="XMLID_21_" class="st1" d="M235.6,229.6c0-0.3,0.1-0.6,0.4-0.5c1.7,0,3.4,0,5.1,0c0.3-0.1,0.5,0.3,0.5,0.5
		c0,12.2,0,24.3,0,36.5c0,0.3-0.1,0.6-0.5,0.6c-1.4,0-2.9,0-4.3,0c-0.3,0-0.5-0.2-0.5-0.5c0-0.7,0-1.5,0-2.2
		c-1.4,1.8-3.6,2.7-5.8,3.1c-3.3,0.5-6.8-0.2-9.4-2.2c-1.9-1.5-3.2-3.6-4-5.8c-0.8-2.3-0.9-4.7-0.8-7.1c0.2-3.4,1.3-6.9,3.7-9.3
		c2.2-2.3,5.5-3.5,8.7-3.4c2.5,0,5.2,0.7,7,2.6C235.6,237.8,235.6,233.7,235.6,229.6 M228.1,244.4c-1.6,0.3-3.2,1.2-4.1,2.6
		c-1.3,1.8-1.8,4.1-1.7,6.3c0,2.1,0.4,4.3,1.6,6.1c1.1,1.6,2.9,2.7,4.9,2.8c2.1,0.2,4.3-0.7,5.7-2.4c0.8-1,1.3-2.3,1.3-3.7
		c0-2.5,0-5,0-7.5c0-0.2,0-0.4-0.1-0.5c-0.7-1.3-1.8-2.5-3.2-3.2C231.1,244.3,229.6,244.2,228.1,244.4z"/>
	<path id="XMLID_22_" class="st1" d="M145.2,231.9c0-0.2,0.2-0.4,0.5-0.4c1.7,0,3.3,0,5,0c0.3,0,0.4,0.3,0.4,0.5c0,2.6,0,5.1,0,7.7
		c1.4,0,2.7,0,4.1,0c0.2,0,0.4,0.1,0.5,0.2c0,1.5,0,2.9,0,4.4c0,0.2-0.2,0.4-0.4,0.4c-1.4,0-2.8,0-4.2,0c0,4,0,8,0,12
		c0,1.2-0.1,2.4,0.1,3.6c0.1,0.4,0.2,0.8,0.6,1.1c0.4,0.3,0.9,0.4,1.3,0.5c1.2,0.1,2.5,0,3.7,0.2c0.4,0.1,0.3,0.6,0.2,0.9
		c-0.3,1.3-0.7,2.6-1,3.9c0,0.2-0.1,0.4-0.3,0.4c-1.5,0.1-3.1,0-4.6-0.2c-1.7-0.2-3.5-0.9-4.7-2.3c-1.1-1.4-1.3-3.3-1.4-5
		c0-5,0-10,0-15c-1.1,0-2.2,0-3.2,0c-0.3,0-0.5-0.3-0.4-0.5c0-1.3,0-2.6,0-3.9c0-0.3,0.1-0.5,0.4-0.5c1.2,0,2.3,0,3.5,0
		C145.2,237.1,145.1,234.5,145.2,231.9z"/>
	<path id="XMLID_23_" class="st1" d="M125.9,239.4c2.3-0.3,4.7-0.2,6.9,0.8c1.7,0.8,3.2,2.1,4.1,3.8c0.7,1.3,1.1,2.8,1.1,4.3
		c0,6,0,12,0,18.1c0.1,0.3-0.3,0.5-0.6,0.5c-1.7,0-3.3,0-5,0c-0.2,0-0.5-0.2-0.4-0.5c0-5.4,0-10.9,0-16.3c0-1-0.1-2.1-0.5-3.1
		c-0.7-1.3-2-2.2-3.5-2.5c-1.8-0.3-3.7,0.1-5.2,1c-1.2,0.8-2.2,2-2.5,3.4c0,5.8,0,11.6,0,17.4c0,0.3-0.2,0.5-0.5,0.5
		c-1.7,0-3.4,0-5.1,0c-0.3,0-0.4-0.3-0.4-0.6c0-8.3,0-16.6,0-24.9c0-0.4,0-0.8,0-1.2c0.1-0.3,0.5-0.3,0.8-0.3c1.4,0,2.9,0,4.3,0
		c0.2,0,0.5,0.1,0.5,0.4c0,0.7,0,1.5,0,2.2C121.4,240.7,123.6,239.6,125.9,239.4z"/>
	<path id="XMLID_26_" class="st1" d="M169.5,239.4c2.3-0.3,4.6-0.3,6.8,0.4c2.2,0.7,4.2,2.1,5.5,3.9c1.8,2.4,2.6,5.5,2.6,8.5
		c0,0.4,0.1,0.9-0.1,1.3c-6.5,0.9-12.9,1.7-19.4,2.5c0.2,1.2,0.6,2.3,1.4,3.3c1.3,1.7,3.3,2.6,5.3,2.8c3.1,0.3,6.4-0.9,8.3-3.4
		c0.3-0.4,0.6-0.9,0.9-1.4c0.1-0.3,0.6-0.3,0.7-0.1c0.9,1.1,1.7,2.2,2.6,3.2c0.2,0.2,0.1,0.5,0,0.7c-1.3,1.9-3.1,3.6-5.2,4.7
		c-2.2,1.1-4.7,1.4-7.2,1.4c-2.8-0.1-5.6-0.9-7.8-2.7c-1.8-1.4-3.1-3.4-3.9-5.6c-0.9-2.4-1.1-5-0.9-7.5c0.2-2.8,1.2-5.6,3-7.8
		C164,241.4,166.7,239.9,169.5,239.4 M167.1,246c-1.5,1.3-2.2,3.3-2.3,5.3c4.6-0.6,9.2-1.2,13.7-1.8c-0.2-1.1-0.6-2.2-1.3-3
		c-1-1.2-2.4-1.9-3.9-2.1C171.1,244,168.7,244.5,167.1,246z"/>
	<path id="XMLID_27_" class="st1" d="M200,239.4c2.1-0.3,4.3-0.2,6.3,0.6c1.9,0.7,3.6,2,4.6,3.8c0.9,1.4,1.3,3.1,1.3,4.8
		c0,5.9,0,11.8,0,17.7c0,0.3-0.1,0.6-0.4,0.6c-1.7,0-3.3,0-5,0c-0.3,0-0.6-0.1-0.6-0.5c0-5.3,0-10.5,0-15.8c0-1.1,0-2.3-0.4-3.3
		c-0.6-1.4-2-2.4-3.4-2.7c-1.7-0.3-3.5-0.1-5,0.8c-1.4,0.8-2.5,2.1-2.9,3.7c0,5.8,0,11.6,0,17.4c0,0.3-0.2,0.5-0.5,0.5
		c-1.7,0-3.3,0-5,0c-0.3,0-0.6-0.2-0.5-0.5c0-8.7,0-17.3,0-26c-0.1-0.3,0.2-0.5,0.5-0.5c1.5,0,3,0,4.4,0c0.2,0,0.6,0.1,0.6,0.4
		c0,0.7,0,1.5,0,2.2C195.6,240.7,197.8,239.7,200,239.4z"/>
	<path id="XMLID_30_" class="st1" d="M257.2,239.3c2.8-0.3,5.8,0,8.3,1.3c2.3,1.1,4.1,3,5.3,5.2c1.4,2.7,1.8,5.7,1.6,8.7
		c-0.2,2.7-0.9,5.4-2.5,7.6c-1.5,2.1-3.7,3.7-6.2,4.5c-2.3,0.7-4.7,0.8-7.1,0.5c-3-0.4-5.8-1.9-7.7-4.2c-1.8-2.1-2.8-4.9-3.1-7.6
		c-0.2-2.6-0.1-5.3,0.8-7.7c0.8-2.3,2.2-4.4,4.2-5.9C252.7,240.3,254.9,239.5,257.2,239.3 M258,244.4c-1.6,0.2-3.2,1.1-4.2,2.4
		c-1.4,1.7-2,3.9-2,6c-0.1,2.4,0.4,4.9,2,6.9c1.4,1.8,3.7,2.8,5.9,2.5c2.1-0.1,4.1-1.3,5.1-3.1c1.4-2.4,1.6-5.3,1.3-7.9
		c-0.3-2.2-1.4-4.4-3.3-5.7C261.5,244.5,259.7,244.2,258,244.4z"/>
	<path id="XMLID_31_" class="st1" d="M102.4,239.8c1.7,0,3.5,0,5.2,0c0.3,0,0.5,0.2,0.5,0.5c0,8.6,0,17.2,0,25.9
		c0,0.2-0.1,0.6-0.4,0.6c-1.7,0-3.5,0-5.3,0c-0.3,0.1-0.5-0.3-0.5-0.6c0-8.6,0-17.2,0-25.7C102,240.1,102.1,239.8,102.4,239.8z"/>
</g>
</svg>
